<svg xmlns="http://www.w3.org/2000/svg" xmlns:xlink="http://www.w3.org/1999/xlink" width="130" zoomAndPan="magnify" viewBox="0 0 97.5 42" height="56" preserveAspectRatio="xMidYMid meet" version="1.0"><defs><g/><clipPath id="9ff595c356"><path d="M 3 0 L 72 0 L 72 41.023438 L 3 41.023438 Z M 3 0 " clip-rule="nonzero"/></clipPath><clipPath id="37d20176ae"><rect x="0" width="69" y="0" height="42"/></clipPath></defs><g clip-path="url(#9ff595c356)"><g transform="matrix(1, 0, 0, 1, 3, 0.000000000000004377)"><g clip-path="url(#37d20176ae)"><g fill="#ffffff" fill-opacity="1"><g transform="translate(0.178838, 38.372058)"><g><path d="M 17.546875 -0.34375 C 16.972656 0.195312 16.414062 0.140625 15.875 -0.515625 C 15.519531 -0.910156 15.242188 -1.457031 15.046875 -2.15625 C 14.816406 -2.96875 14.664062 -3.992188 14.59375 -5.234375 C 14.476562 -7.898438 14.59375 -10.535156 14.9375 -13.140625 C 15.59375 -18.054688 16.539062 -23.597656 17.78125 -29.765625 L 18.890625 -34.359375 L 18.890625 -34.875 C 18.816406 -34.832031 18.660156 -34.640625 18.421875 -34.296875 C 14.472656 -26.546875 12.109375 -21.914062 11.328125 -20.40625 C 8.773438 -15.476562 6.585938 -11.390625 4.765625 -8.140625 C 4.179688 -7.085938 3.660156 -6.273438 3.203125 -5.703125 C 2.929688 -5.304688 2.660156 -5.03125 2.390625 -4.875 C 2.035156 -4.644531 1.703125 -4.578125 1.390625 -4.671875 C 1.085938 -4.773438 0.875 -5.019531 0.75 -5.40625 C 0.632812 -5.832031 0.578125 -6.21875 0.578125 -6.5625 C 0.535156 -7.570312 0.632812 -8.660156 0.875 -9.828125 C 1.726562 -14.203125 2.65625 -17.742188 3.65625 -20.453125 C 5.289062 -24.910156 7.460938 -28.785156 10.171875 -32.078125 C 11.253906 -33.472656 12.492188 -34.617188 13.890625 -35.515625 C 14.429688 -35.898438 14.992188 -36.171875 15.578125 -36.328125 C 16.585938 -36.640625 17.378906 -36.347656 17.953125 -35.453125 L 18.1875 -34.984375 C 18.3125 -35.179688 18.445312 -35.4375 18.59375 -35.75 C 18.75 -36.0625 18.882812 -36.289062 19 -36.4375 C 19.15625 -36.75 19.289062 -36.960938 19.40625 -37.078125 C 19.53125 -37.234375 19.671875 -37.273438 19.828125 -37.203125 C 19.972656 -37.160156 20.046875 -37.039062 20.046875 -36.84375 C 20.046875 -36.570312 20.03125 -36.378906 20 -36.265625 L 18.953125 -31.15625 C 18.910156 -31 18.382812 -28.226562 17.375 -22.84375 C 17.34375 -22.644531 17.1875 -21.722656 16.90625 -20.078125 C 16.632812 -18.429688 16.441406 -17.164062 16.328125 -16.28125 C 15.710938 -11.707031 15.460938 -8.273438 15.578125 -5.984375 C 15.648438 -4.398438 15.785156 -3.21875 15.984375 -2.4375 C 16.140625 -1.820312 16.3125 -1.378906 16.5 -1.109375 C 16.738281 -0.835938 16.972656 -0.816406 17.203125 -1.046875 C 17.398438 -1.242188 17.613281 -1.492188 17.84375 -1.796875 C 18.46875 -2.691406 19.007812 -3.644531 19.46875 -4.65625 L 23.890625 -15 L 25.28125 -17.953125 C 25.320312 -18.078125 25.457031 -18.253906 25.6875 -18.484375 L 25.921875 -18.484375 C 25.960938 -18.441406 25.984375 -18.40625 25.984375 -18.375 C 25.941406 -18.332031 25.921875 -18.257812 25.921875 -18.15625 C 25.921875 -18.0625 25.898438 -17.992188 25.859375 -17.953125 L 20.640625 -5.515625 C 19.859375 -3.703125 19.101562 -2.3125 18.375 -1.34375 C 18.0625 -0.875 17.785156 -0.539062 17.546875 -0.34375 Z M 1.859375 -5.515625 C 2.015625 -5.515625 2.148438 -5.578125 2.265625 -5.703125 C 2.691406 -6.003906 3.0625 -6.445312 3.375 -7.03125 L 5.296875 -10.171875 C 7.421875 -14.003906 10.148438 -19.175781 13.484375 -25.6875 C 14.648438 -27.976562 15.96875 -30.519531 17.4375 -33.3125 C 17.75 -33.882812 17.691406 -34.441406 17.265625 -34.984375 C 16.953125 -35.410156 16.546875 -35.566406 16.046875 -35.453125 C 15.691406 -35.378906 15.207031 -35.148438 14.59375 -34.765625 C 13.351562 -33.941406 12.207031 -32.851562 11.15625 -31.5 C 8.445312 -28.09375 6.316406 -24.257812 4.765625 -20 C 3.796875 -17.164062 2.804688 -13.382812 1.796875 -8.65625 C 1.765625 -8.425781 1.71875 -8.078125 1.65625 -7.609375 C 1.59375 -7.148438 1.546875 -6.800781 1.515625 -6.5625 L 1.5625 -6.5625 L 1.5625 -5.984375 C 1.5625 -5.710938 1.660156 -5.554688 1.859375 -5.515625 Z M 1.859375 -5.515625 "/></g></g></g><g fill="#ffffff" fill-opacity="1"><g transform="translate(24.993283, 38.372058)"><g><path d="M 1.515625 -15.171875 C 1.046875 -14.898438 0.695312 -15.015625 0.46875 -15.515625 C 0.351562 -15.710938 0.296875 -15.90625 0.296875 -16.09375 C 0.296875 -17.03125 0.445312 -17.863281 0.75 -18.59375 L 0.9375 -18.78125 C 1.050781 -18.894531 1.222656 -18.929688 1.453125 -18.890625 C 1.566406 -18.847656 1.625 -18.710938 1.625 -18.484375 C 1.625 -18.210938 1.585938 -17.882812 1.515625 -17.5 C 1.515625 -17.382812 1.503906 -17.238281 1.484375 -17.0625 C 1.460938 -16.882812 1.453125 -16.757812 1.453125 -16.6875 C 1.453125 -16.5625 1.488281 -16.5 1.5625 -16.5 L 1.796875 -16.5 C 2.066406 -16.78125 2.472656 -17.304688 3.015625 -18.078125 C 3.679688 -19.160156 4.363281 -20.085938 5.0625 -20.859375 C 5.21875 -21.054688 5.445312 -21.3125 5.75 -21.625 C 5.832031 -21.738281 5.988281 -21.875 6.21875 -22.03125 C 6.84375 -22.457031 7.210938 -22.320312 7.328125 -21.625 C 7.359375 -21.46875 7.382812 -21.234375 7.40625 -20.921875 C 7.425781 -20.609375 7.4375 -20.414062 7.4375 -20.34375 L 7.09375 -17.203125 C 7.050781 -17.046875 7.03125 -16.796875 7.03125 -16.453125 C 7.03125 -16.253906 7.066406 -16.132812 7.140625 -16.09375 C 7.222656 -16.0625 7.34375 -16.125 7.5 -16.28125 C 7.570312 -16.394531 7.707031 -16.578125 7.90625 -16.828125 C 8.101562 -17.078125 8.238281 -17.257812 8.3125 -17.375 C 8.78125 -17.914062 9.226562 -18.304688 9.65625 -18.546875 C 10.195312 -18.816406 10.679688 -18.738281 11.109375 -18.3125 L 11.5625 -17.78125 C 11.875 -17.4375 12.242188 -17.164062 12.671875 -16.96875 C 13.140625 -16.78125 13.625 -16.800781 14.125 -17.03125 C 14.46875 -17.1875 14.929688 -17.515625 15.515625 -18.015625 C 15.671875 -18.128906 15.816406 -18.222656 15.953125 -18.296875 C 16.085938 -18.378906 16.179688 -18.421875 16.234375 -18.421875 C 16.296875 -18.421875 16.347656 -18.40625 16.390625 -18.375 C 16.429688 -18.175781 16.273438 -17.941406 15.921875 -17.671875 C 15.535156 -17.285156 15.242188 -17.015625 15.046875 -16.859375 C 13.734375 -15.773438 12.398438 -15.910156 11.046875 -17.265625 C 10.890625 -17.421875 10.695312 -17.648438 10.46875 -17.953125 C 10.34375 -18.109375 10.164062 -18.148438 9.9375 -18.078125 C 9.46875 -17.878906 9.097656 -17.585938 8.828125 -17.203125 C 8.710938 -17.085938 8.566406 -16.90625 8.390625 -16.65625 C 8.222656 -16.40625 8.097656 -16.21875 8.015625 -16.09375 C 7.785156 -15.789062 7.59375 -15.5625 7.4375 -15.40625 C 6.9375 -14.976562 6.609375 -15.070312 6.453125 -15.6875 C 6.410156 -15.84375 6.390625 -16.113281 6.390625 -16.5 L 6.5625 -18.421875 C 6.644531 -18.890625 6.722656 -19.628906 6.796875 -20.640625 C 6.878906 -20.941406 6.863281 -21.210938 6.75 -21.453125 C 6.664062 -21.609375 6.566406 -21.625 6.453125 -21.5 C 6.140625 -21.269531 5.867188 -21 5.640625 -20.6875 C 5.015625 -20.03125 4.316406 -19.0625 3.546875 -17.78125 C 3.003906 -16.925781 2.578125 -16.289062 2.265625 -15.875 C 2.035156 -15.476562 1.785156 -15.242188 1.515625 -15.171875 Z M 1.515625 -15.171875 "/></g></g></g><g fill="#ffffff" fill-opacity="1"><g transform="translate(40.219008, 38.372058)"><g><path d="M 6.921875 -15.984375 C 6.066406 -15.753906 5.582031 -16.082031 5.46875 -16.96875 C 5.425781 -17.4375 5.460938 -17.960938 5.578125 -18.546875 C 5.660156 -18.972656 5.679688 -19.242188 5.640625 -19.359375 C 5.554688 -19.359375 5.476562 -19.335938 5.40625 -19.296875 C 5.332031 -19.253906 5.273438 -19.210938 5.234375 -19.171875 C 5.191406 -19.140625 5.140625 -19.09375 5.078125 -19.03125 C 5.023438 -18.976562 4.976562 -18.929688 4.9375 -18.890625 C 4.050781 -18.117188 3.238281 -17.554688 2.5 -17.203125 C 2.226562 -17.046875 1.957031 -16.910156 1.6875 -16.796875 C 1.300781 -16.679688 1 -16.71875 0.78125 -16.90625 C 0.570312 -17.101562 0.503906 -17.394531 0.578125 -17.78125 C 0.578125 -17.863281 0.617188 -18.019531 0.703125 -18.25 C 0.929688 -18.789062 1.28125 -19.238281 1.75 -19.59375 C 2.5625 -20.164062 3.375 -20.164062 4.1875 -19.59375 L 4.25 -19.53125 L 4.296875 -19.53125 C 4.566406 -19.332031 4.800781 -19.332031 5 -19.53125 L 6.109375 -20.640625 C 6.296875 -20.785156 6.445312 -20.800781 6.5625 -20.6875 C 6.6875 -20.570312 6.707031 -20.476562 6.625 -20.40625 C 6.582031 -20.09375 6.484375 -19.625 6.328125 -19 C 6.140625 -18.269531 6.066406 -17.59375 6.109375 -16.96875 C 6.140625 -16.65625 6.332031 -16.519531 6.6875 -16.5625 C 7.269531 -16.644531 8.816406 -17.285156 11.328125 -18.484375 C 11.484375 -18.484375 11.582031 -18.445312 11.625 -18.375 C 11.695312 -18.175781 11.597656 -18 11.328125 -17.84375 C 9.316406 -16.832031 7.847656 -16.210938 6.921875 -15.984375 Z M 1.96875 -17.546875 C 2.394531 -17.703125 2.84375 -17.914062 3.3125 -18.1875 C 3.582031 -18.382812 3.738281 -18.539062 3.78125 -18.65625 C 3.820312 -18.738281 3.769531 -18.804688 3.625 -18.859375 C 3.488281 -18.921875 3.328125 -18.953125 3.140625 -18.953125 C 2.828125 -18.867188 2.59375 -18.789062 2.4375 -18.71875 C 1.976562 -18.363281 1.671875 -17.992188 1.515625 -17.609375 C 1.703125 -17.453125 1.851562 -17.429688 1.96875 -17.546875 Z M 1.96875 -17.546875 "/></g></g></g><g fill="#ffffff" fill-opacity="1"><g transform="translate(50.67943, 38.372058)"><g><path d="M 1.5625 -15.046875 C 1.144531 -14.703125 0.859375 -14.800781 0.703125 -15.34375 C 0.578125 -15.726562 0.554688 -16.269531 0.640625 -16.96875 C 0.679688 -17.320312 0.78125 -17.75 0.9375 -18.25 C 1.007812 -18.476562 1.125 -18.59375 1.28125 -18.59375 C 1.4375 -18.5625 1.515625 -18.410156 1.515625 -18.140625 C 1.429688 -17.828125 1.390625 -17.554688 1.390625 -17.328125 C 1.316406 -16.703125 1.316406 -16.234375 1.390625 -15.921875 C 1.898438 -16.429688 2.25 -16.800781 2.4375 -17.03125 C 3.132812 -17.726562 3.773438 -18.234375 4.359375 -18.546875 C 5.210938 -19.085938 6.046875 -19.046875 6.859375 -18.421875 C 7.203125 -18.148438 7.648438 -17.785156 8.203125 -17.328125 C 8.503906 -16.929688 9.09375 -16.800781 9.96875 -16.9375 C 10.84375 -17.070312 11.617188 -17.242188 12.296875 -17.453125 C 12.972656 -17.671875 13.617188 -17.914062 14.234375 -18.1875 C 14.359375 -18.269531 14.546875 -18.359375 14.796875 -18.453125 C 15.046875 -18.546875 15.226562 -18.613281 15.34375 -18.65625 C 15.539062 -18.65625 15.675781 -18.597656 15.75 -18.484375 C 15.789062 -18.410156 15.753906 -18.3125 15.640625 -18.1875 C 14.941406 -17.6875 14.097656 -17.234375 13.109375 -16.828125 C 12.117188 -16.421875 11.085938 -16.140625 10.015625 -15.984375 C 8.953125 -15.828125 8.113281 -15.984375 7.5 -16.453125 C 6.875 -16.835938 6.425781 -17.144531 6.15625 -17.375 C 5.695312 -17.6875 5.195312 -17.726562 4.65625 -17.5 C 3.832031 -17.03125 3.09375 -16.46875 2.4375 -15.8125 Z M 1.5625 -15.046875 "/></g></g></g></g></g></g></svg>